<svg width="40" height="41" viewBox="0 0 40 41" fill="none" xmlns="http://www.w3.org/2000/svg">
<path d="M20 0C8.95536 0 0 9.21833 0 20.5777C0 29.6707 5.73214 37.375 13.6786 40.0984C13.79 40.1227 13.9038 40.1347 14.0179 40.1342C14.7589 40.1342 15.0446 39.5877 15.0446 39.1129C15.0446 38.6202 15.0268 37.3302 15.0179 35.6102C14.3563 35.7658 13.6795 35.8469 13 35.852C9.15179 35.852 8.27679 32.8509 8.27679 32.8509C7.36607 30.4769 6.05357 29.8409 6.05357 29.8409C4.3125 28.6135 6.04464 28.5777 6.17857 28.5777H6.1875C8.19643 28.7569 9.25 30.7098 9.25 30.7098C10.25 32.4657 11.5893 32.9584 12.7857 32.9584C13.5768 32.9426 14.3557 32.7594 15.0714 32.4209C15.25 31.0951 15.7679 30.1902 16.3393 29.6707C11.9018 29.1511 7.23214 27.3862 7.23214 19.5027C7.23214 17.2541 8.00893 15.4176 9.28571 13.9843C9.08036 13.4647 8.39286 11.3684 9.48214 8.53748C9.62825 8.5024 9.77843 8.48733 9.92857 8.49269C10.6518 8.49269 12.2857 8.7704 14.9821 10.6517C18.2585 9.73193 21.7236 9.73193 25 10.6517C27.6964 8.7704 29.3304 8.49269 30.0536 8.49269C30.2037 8.48733 30.3539 8.5024 30.5 8.53748C31.5893 11.3684 30.9018 13.4647 30.6964 13.9843C31.9732 15.4266 32.75 17.2631 32.75 19.5027C32.75 27.4041 28.0714 29.1421 23.6161 29.6527C24.3304 30.2888 24.9732 31.543 24.9732 33.4601C24.9732 36.2104 24.9464 38.4321 24.9464 39.104C24.9464 39.5877 25.2232 40.1342 25.9643 40.1342C26.0842 40.1347 26.2039 40.1227 26.3214 40.0984C34.2768 37.375 40 29.6617 40 20.5777C40 9.21833 31.0446 0 20 0Z" fill="black"/>
</svg>
