<?xml version="1.0" standalone="no"?>
<!DOCTYPE svg PUBLIC "-//W3C//DTD SVG 20010904//EN"
 "http://www.w3.org/TR/2001/REC-SVG-20010904/DTD/svg10.dtd">
<svg version="1.0" xmlns="http://www.w3.org/2000/svg"
 width="788.000000pt" height="687.000000pt" viewBox="0 0 788.000000 687.000000"
 preserveAspectRatio="xMidYMid meet">

<g transform="translate(0.000000,687.000000) scale(0.100000,-0.100000)"
fill="#000000" stroke="none">
<path d="M3360 6759 c-41 -5 -111 -16 -156 -24 -49 -9 -139 -15 -228 -15 -622
0 -1195 -240 -1640 -686 -358 -359 -575 -806 -658 -1354 -19 -125 -19 -2272 0
-2415 68 -509 280 -953 636 -1333 50 -53 215 -195 296 -254 288 -211 625 -353
995 -420 97 -18 176 -21 665 -28 l555 -7 570 -72 c770 -96 728 -92 921 -92
634 2 1196 240 1646 699 272 278 455 588 567 961 48 163 66 274 141 875 38
308 93 746 121 971 75 599 77 803 13 1124 -49 247 -170 546 -308 765 -180 285
-473 572 -760 745 -241 146 -587 274 -826 306 -30 4 -71 16 -91 26 -50 25
-255 95 -353 120 -217 56 -268 60 -826 69 -401 7 -547 12 -620 24 -114 19
-548 29 -660 15z m875 -729 c355 -40 1397 -172 1425 -181 91 -29 263 -154 394
-285 213 -213 362 -474 437 -769 47 -182 49 -227 49 -1320 0 -1173 -1 -1197
-82 -1438 -197 -592 -711 -1022 -1333 -1116 -43 -6 -320 -11 -715 -12 l-645
-1 -323 41 c-177 22 -364 50 -415 62 -609 142 -1078 614 -1227 1234 -64 266
-59 360 79 1475 123 993 124 1000 151 1115 109 465 434 871 866 1084 122 60
260 109 339 119 84 10 892 4 1000 -8z"/>
<path d="M3362 4419 c-29 -15 -51 -36 -70 -68 l-27 -46 0 -890 c0 -831 1 -892
18 -922 25 -46 63 -79 115 -98 42 -17 47 -16 105 2 75 24 1486 829 1536 876
40 38 71 100 71 142 0 42 -31 104 -71 142 -43 40 -1459 852 -1518 870 -63 19
-109 16 -159 -8z"/>
</g>
</svg>
