<svg width="25" height="25" viewBox="0 0 25 25" fill="none" xmlns="http://www.w3.org/2000/svg">
<path d="M12.4997 2.08398C18.2528 2.08398 22.9163 6.74753 22.9163 12.5007C22.9188 14.1271 22.5388 15.7314 21.807 17.184C21.7305 16.8874 21.5889 16.6116 21.3924 16.3767L21.2643 16.2361L19.7913 14.7632L18.3184 16.2361L18.1965 16.3684C17.9326 16.6821 17.7671 17.0667 17.7208 17.4741C17.6744 17.8814 17.7493 18.2934 17.936 18.6584C18.1228 19.0234 18.413 19.3251 18.7705 19.5259C19.1279 19.7267 19.5367 19.8176 19.9455 19.7871C18.9762 20.7795 17.818 21.5678 16.5392 22.1054C15.2604 22.643 13.8869 22.9191 12.4997 22.9173C6.74655 22.9173 2.08301 18.2538 2.08301 12.5007C2.08301 6.74753 6.74655 2.08398 12.4997 2.08398ZM12.4997 15.6257C11.0622 15.6257 9.76009 16.209 8.81842 17.1496L8.64551 17.3309L9.62988 18.2267C10.4528 17.8986 11.4393 17.709 12.4997 17.709C13.4424 17.709 14.3268 17.859 15.0893 18.1215L15.3695 18.2257L16.3538 17.3298C15.8661 16.7923 15.2712 16.3629 14.6073 16.0694C13.9435 15.7758 13.2255 15.6247 12.4997 15.6257ZM8.85384 10.4173C8.43944 10.4173 8.04201 10.5819 7.74899 10.875C7.45596 11.168 7.29134 11.5654 7.29134 11.9798C7.29134 12.3942 7.45596 12.7916 7.74899 13.0847C8.04201 13.3777 8.43944 13.5423 8.85384 13.5423C9.26824 13.5423 9.66567 13.3777 9.9587 13.0847C10.2517 12.7916 10.4163 12.3942 10.4163 11.9798C10.4163 11.5654 10.2517 11.168 9.9587 10.875C9.66567 10.5819 9.26824 10.4173 8.85384 10.4173ZM16.1455 10.4173C15.7311 10.4173 15.3337 10.5819 15.0407 10.875C14.7476 11.168 14.583 11.5654 14.583 11.9798C14.583 12.3942 14.7476 12.7916 15.0407 13.0847C15.3337 13.3777 15.7311 13.5423 16.1455 13.5423C16.5599 13.5423 16.9573 13.3777 17.2504 13.0847C17.5434 12.7916 17.708 12.3942 17.708 11.9798C17.708 11.5654 17.5434 11.168 17.2504 10.875C16.9573 10.5819 16.5599 10.4173 16.1455 10.4173Z" fill="#AC008F"/>
</svg>
