<svg width="25" height="25" viewBox="0 0 25 25" fill="none" xmlns="http://www.w3.org/2000/svg">
<path d="M12.4997 22.9173C18.2434 22.9173 22.9163 18.2444 22.9163 12.5007C22.9163 6.7569 18.2434 2.08398 12.4997 2.08398C6.75592 2.08398 2.08301 6.7569 2.08301 12.5007C2.08301 18.2444 6.75592 22.9173 12.4997 22.9173ZM16.1382 9.37565C16.3459 9.37035 16.5526 9.40668 16.746 9.48251C16.9394 9.55834 17.1157 9.67214 17.2644 9.81718C17.4132 9.96222 17.5314 10.1356 17.6121 10.327C17.6927 10.5185 17.7343 10.7242 17.7342 10.9319C17.7341 11.1397 17.6925 11.3453 17.6117 11.5367C17.5308 11.7281 17.4125 11.9014 17.2637 12.0463C17.1148 12.1913 16.9385 12.305 16.745 12.3807C16.5515 12.4564 16.3449 12.4926 16.1372 12.4871C15.7315 12.4765 15.3461 12.3078 15.063 12.0171C14.7799 11.7264 14.6216 11.3366 14.6217 10.9309C14.6218 10.5251 14.7805 10.1354 15.0637 9.84491C15.347 9.55439 15.7326 9.38601 16.1382 9.37565ZM11.658 16.5829C12.2136 16.6944 12.7858 16.6944 13.3413 16.5829C13.6049 16.5288 13.8674 16.4465 14.1226 16.3402C14.3663 16.2361 14.6059 16.1069 14.8299 15.9569C15.0465 15.809 15.2538 15.6382 15.4455 15.4475C15.6361 15.2579 15.807 15.0507 15.9549 14.8309L17.682 15.9944C17.2329 16.6599 16.6604 17.2331 15.9955 17.6829C15.318 18.1401 14.5575 18.46 13.757 18.6246C12.927 18.7913 12.0722 18.791 11.2424 18.6236C10.4416 18.4614 9.68102 18.1416 9.00488 17.6829C8.33993 17.232 7.76688 16.6586 7.31634 15.9934L9.04342 14.8298C9.19238 15.0496 9.36322 15.2569 9.55176 15.4444C10.1269 16.0224 10.8594 16.4184 11.658 16.5829ZM8.85384 9.37565C9.0591 9.37572 9.26234 9.41622 9.45194 9.49483C9.64155 9.57344 9.81382 9.68863 9.95891 9.83382C10.104 9.979 10.2191 10.1514 10.2976 10.341C10.376 10.5307 10.4164 10.7339 10.4163 10.9392C10.4163 11.1445 10.3758 11.3477 10.2972 11.5373C10.2186 11.7269 10.1034 11.8992 9.95817 12.0443C9.81299 12.1894 9.64064 12.3044 9.45098 12.3829C9.26132 12.4614 9.05806 12.5018 8.8528 12.5017C8.43826 12.5016 8.04075 12.3367 7.74773 12.0435C7.4547 11.7503 7.29016 11.3527 7.2903 10.9382C7.29044 10.5236 7.45525 10.1261 7.74847 9.83308C8.04169 9.54006 8.4393 9.37551 8.85384 9.37565Z" fill="#2A2096"/>
</svg>
